<?xml version="1.0" encoding="UTF-8"?>
<svg version="1.1" viewBox="0 0 1133.1 800" xmlns="http://www.w3.org/2000/svg">
 <g transform="translate(-267.86 -204.16)">
  <g transform="matrix(1.7112 0 0 1.7112 -190.5 -714.16)">
   <path d="m267.86 1004.1c7.0339-14.046 13.707-28.163 30-40.357 0.2012-19.345-4.1407-14.814 11.429-23.571 13.096-18.106 7.0776-18.602 27.143-20.714-1.1924-18.183 12.153-34.243 24.286-24.286-0.62548-1.9809 30.373-23.583 32.857-19.286 1.7877 3.0918-3.9661-17.324-0.71429-25 9.5261-22.488 34.963-27.826 55.714-30 25.614-2.6838 81.429-9.2857 81.429-9.2857l8.5714-20.714 199.29 6.4286 10 28.571c48.777 1.3588 83.356 23.137 120 43.571 11.994 6.6886 12.053 21.164 9.2857 35l-3.5714 17.857c-3.0018 15.009 28.398 14.274 17.857 32.857 18.755 17.579 18.828 33.224 38.571 48.929z"/>
   <path transform="translate(267.04 535.84)" d="m306.58 377.49s22.1 46.729 33.637 90.827h33.344l39.409-94.149z" fill="#f2f1f0"/>
   <path d="m547.58 900-5 30.714 10.714 31.429 57.857-41.429h27.143l68.571 8.5714 7.8571-55.714-80.714 30-25 0.71428z" fill="#f00"/>
   <path d="m611.15 902.85v21.429l23.571-0.71428 1.4286-23.571z" fill="#f00"/>
   <path d="m617.86 543.08h-22.857l3.5714 3.5714h-24.286l-15.714 3.5714 7.8571 2.1429-20.714 2.8571 8.5714 3.5714-15.714 4.2857-25.714-0.71429 12.143 5-23.571 4.2857h14.286l-25 20.714h13.571l-35.714 28.571 18.571-5.7143-33.571 39.286 22.143-12.143-13.571 25.714 11.429-8.5714-25 40.714 22.143-14.286-14.286 28.571 9.2857-0.71429-3.5714 18.571 5.7143-7.1428-2.1428 23.571 4.2857-8.5714 7.8571 38.571 5.7143-23.571 1.4286 17.857 7.8571-8.5714-10 32.857 13.571-20.714 2.1429 32.143 7.1429-10.714 6.4286 10.714 14.286-19.286 208.57 1.4286 11.429 23.571 6.4286-27.857 3.5714 14.286v-30l8.5714 30-2.1429-38.571 7.8572 23.571-2.1429 17.857 13.571-40 4.2857 8.5714v-32.857l-3.5714-29.286 9.2857 16.429-11.429-45-5.7143-28.571-5.7143-32.857-24.286-33.571 20 15.714-33.571-27.857 17.857 1.4286-35-12.143 12.857-0.71428-29.286-9.2857 22.143 1.4286-42.143-12.143 10.714-6.4286-25.714 0.71428-30 5z"/>
   <path transform="translate(267.04 535.84)" d="m386.25 29.719c-15.614-0.06227-31.203 4.9519-46.875 6.0938-12.12 0.88305-25.139-3.1466-36.406 1.4062-8.2863 3.3484-13.287 11.975-20 17.875-8.7491 7.6884-20.424 12.869-26.438 22.844-16.908 28.045-22.156 95.719-22.156 95.719-25.935 55.79-6.9315 79.836 33.594 94.281l24.281 70c3.44 9.9153 14.601 6.5514 15 0l3.5625-58.562 94.281 0.71875 4.2812 61.438c0.70315 10.079 9.3313 10.121 14.281 2.125 0 0 6.8803-9.646 9.3125-15 4.0182-8.8454 4.6444-18.954 8.5625-27.844 5.6815-12.891 21.438-36.438 21.438-36.438 45.546-10.892 46.148-39.411 32.125-81.438-9.2363-27.681-5.8812-6.6106-7.125-10.719-1.7939-5.9249 1.5491-12.569 0-18.562-5.2299-20.235-5.5097-48.055-10.719-60.719-8.1483-18.962-22.278-36.146-39.281-47.844-13.026-8.9616-29.28-13.3-45-15-2.2318-0.24139-4.4882-0.3661-6.7188-0.375zm-72.938 252.16-2.5 77.5c-0.15751 4.8828 6.298 7.9208 10.719 10 6.7345 3.1674 14.709 3.4649 22.125 2.8438 5.7042-0.47775 16.438-5 16.438-5s15.893 8.0747 24.281 7.1562c12.405-1.3583 21.687-16.315 21.438-27.156l-2.8438-64.281-89.656-1.0625z" fill="#c5c2bd"/>
   <path d="m585.71 668.08c-15.954-9.0612-39.331-10.973-55-1.4286-7.0116 4.2709-12.32 16.792-12.143 25 0.19338 8.9827 6.0642 19.233 14.286 22.857 14.619 6.444 23.523 4.7425 45 4.2857 27.209-0.57873 27.827-39.372 7.8571-50.714z"/>
   <path d="m550.71 640.93c-19.479 2.1113-45.313 16.622-47.857 22.857-5.5762 13.664-1.3996 19.8 9.2857 17.143 6.5353-1.6252 13.601-12.239 22.143-14.286 15.828-3.7928 34.217-2.6722 48.571 5 10.995 5.8767 16.648 14.964 22.143 18.571 5.3247 3.4953 8.6587 10.306 17.392 2.9846 7.703-6.4574 3.781-10.552 0.46545-20.127-2.6997-7.7971-19.246-16.873-30.714-22.143-12.908-5.9317-27.305-11.531-41.429-10z" fill="#c5c2bd" stroke="#000" stroke-linecap="round" stroke-linejoin="round" stroke-width="1.61"/>
   <path d="m680.71 669.51c-17.479 4.7352-20.663 12.08-22.143 20-1.1668 6.2451 4.0167 20.653 7.8571 25.714 5.4102 7.1297 11.152 4.3682 20 5.7143 15.603 2.3738 24.759-3.0411 39.286-7.8571 17.498-5.8011 15.982-51.673 0-52.143-17.229-0.50604-25.813 3.3737-45 8.5714z"/>
   <path d="m660 656.65c-9.4757 7.8286-20.714 18.571-20.714 18.571-14.134 14.526 7.9085 28.061 22.143 14.286 0 0 9.875-15.885 19.286-20 11.798-5.1595 28.99-6.9041 41.429-3.5714 7.1443 1.9142 13.09 7.1771 18.571 12.143 14.807 13.414 28.477-1.838 15-13.571-5.0855-4.4275-17.214-18.412-28.571-22.857-12.448-4.8715-27.066-6.2329-40-2.8572-10.479 2.735-18.794 10.959-27.143 17.857z" fill="#c5c2bd" stroke="#000" stroke-linecap="round" stroke-linejoin="round" stroke-width="1.61"/>
   <path transform="translate(2.1429)" d="m583.57 688.79c0 11.046-8.9543 20-20 20-11.046 0-20-8.9543-20-20 0-11.046 8.9543-20 20-20 11.046 0 20 8.9543 20 20z" fill="#f00"/>
   <path transform="translate(132.14 1.4286)" d="m583.57 688.79c0 11.046-8.9543 20-20 20-11.046 0-20-8.9543-20-20 0-11.046 8.9543-20 20-20 11.046 0 20 8.9543 20 20z" fill="#f00"/>
   <path transform="matrix(.48501 0 0 .48501 422.37 356.15)" d="m583.57 688.79c0 11.046-8.9543 20-20 20-11.046 0-20-8.9543-20-20 0-11.046 8.9543-20 20-20 11.046 0 20 8.9543 20 20z"/>
   <path transform="matrix(.48501 0 0 .48501 291.66 354)" d="m583.57 688.79c0 11.046-8.9543 20-20 20-11.046 0-20-8.9543-20-20 0-11.046 8.9543-20 20-20 11.046 0 20 8.9543 20 20z"/>
   <path transform="translate(267.04 535.84)" d="m245.69 175.25c-4.1558-0.0486-8.3832 0.43996-12.625 1.4062-1.3669 3.0724-2.629 6.0281-3.7188 8.9062 1.9448-0.98312 3.7457-1.7443 5.125-2.0625 17.443-4.0237 33.037 0.61704 43.375 17.688 11.647 19.232 11.518 36.801 4.5 49.281-4.0267 7.1613-10.401 12.715-18.5 15.938 1.347 0.5226 2.7257 1.0325 4.125 1.5312l1.2812 3.7188c8.2075-3.9232 14.851-10.037 19.188-17.75 8.392-14.925 8.0273-35.452-4.625-56.344-8.7973-14.526-21.979-21.553-36.312-22.25-0.59724-0.029-1.2114-0.0555-1.8125-0.0625zm-4.125 14.188c-5.4679-0.0136-10.36 1.1053-14.625 3.0625-1.0598 3.3276-1.9548 6.5333-2.625 9.5938 4.3684-3.5404 10.046-5.6741 17.219-5.6562 7.1045 0.0177 15.167 6.0194 20.844 14.844s8.7487 20.124 7.1562 28.906c-1.8733 10.332-7.6183 16.017-15.25 18.281-1.6909 0.50166-3.502 0.81369-5.375 0.9375 3.0484 1.7406 6.3282 3.3864 9.8125 4.9062 8.7789-3.5226 15.612-11.43 17.688-22.875 2.0403-11.252-1.6694-23.853-8.1562-33.938s-15.955-18.036-26.688-18.062zm-6.4688 18.719c-4.4107 0.11408-8.7574 1.777-12.406 4.875-0.2821 3.8364-0.18741 7.4289 0.21875 10.812 3.416-7.3618 9.0937-9.5003 14.75-8.5312 6.6413 1.1378 13.6 7.2925 15.438 18.219 1.0754 6.3936-2.4753 11.276-6.6875 12.844-2.1061 0.784-4.2941 0.77123-6.5312-0.3125s-4.6168-3.3393-6.5625-7.625c-1.2655-2.7874-1.1494-4.6451-0.71875-5.75s1.1809-1.6116 1.9375-1.7812 1.5281-0.0556 2.375 0.8125c0.84686 0.86812 1.803 2.7443 1.8438 6.2812a3.5004 3.5004 0 1 0 7 -0.0937c-0.0554-4.8121-1.4195-8.6087-3.8438-11.094s-5.8702-3.4308-8.9062-2.75-5.6759 2.9368-6.9062 6.0938c-0.45784 1.1747-0.734 2.4593-0.78125 3.8125-3.7e-4 0.0105 3.4e-4 0.0208 0 0.0312 2.8873 7.7448 7.9522 14.141 14.781 19.531 2.9772 0.67285 6.0346 0.41707 8.75-0.59375 7.4668-2.7795 12.754-11.065 11.156-20.562-2.2528-13.394-11.213-22.234-21.156-23.938-1.243-0.21295-2.5013-0.31355-3.75-0.28125z" color="#000000" fill="#f00" style="block-progression:tb;text-indent:0;text-transform:none"/>
   <path transform="translate(267.04 535.84)" d="m488.22 182.28c-13.792 0.14678-27.647 6.1928-37.406 15.719-8.3281 8.1288-13.816 19.034-13.469 31.125s6.5902 25.027 20.469 37.156a3.5004 3.5004 0 0 0 0.84375 0.5625c0.67045 0.30675 1.3657 0.59769 2.0625 0.90625 1.2321-1.8874 2.25-3.375 2.25-3.375 1.6525-0.39518 3.2144-0.80864 4.75-1.25-1.9483-0.7822-3.8408-1.6136-5.6562-2.4375-12.523-11.082-17.438-22.021-17.719-31.781-0.28357-9.8625 4.1726-18.876 11.375-25.906 10.72-10.464 27.209-16.001 41.75-12.656-0.72888-2.4213-1.5344-4.8869-2.375-7.4062-0.0268-0.0803-0.0359-0.13923-0.0625-0.21875-1.3431-0.18334-2.6766-0.31114-4.0312-0.375-0.91744-0.0433-1.8618-0.0723-2.7812-0.0625zm-2.2812 15.094c-4.4762 0.11598-9.1279 1.0367-13.844 2.9062-4.8477 1.9218-9.033 6.2029-12.469 11.5s-6.0193 11.684-6.7188 18.25 0.57497 13.464 5.1875 18.844c4.4438 5.1826 11.694 8.6327 22 9.5938 7.0836-3.4159 12.335-7.5942 16-12.531-3.768 2.4682-8.8067 4.4521-14.688 5.5938-9.4492-0.76073-14.922-3.6286-18-7.2188-3.1234-3.6426-4.1168-8.3275-3.5625-13.531s2.7362-10.765 5.625-15.219 6.5901-7.7391 9.2188-8.7812c10.379-4.1146 20.102-2.52 27.188 1.7188-0.48682-2.8301-1.1079-5.743-1.8438-8.75-4.2991-1.6361-9.0752-2.505-14.094-2.375zm0.90625 14.25c-1.7369 4.7e-4 -3.4709 0.20659-5.1875 0.6875-4.5776 1.2824-8.8019 4.5016-11.719 9.625-3.2166 5.6498-3.5548 10.928-1.3438 14.75s6.2721 5.5786 10.125 5.9062 7.8991-0.6043 10.656-3.625c1.3786-1.5104 2.2858-3.6337 2.3125-5.9062 0.0267-2.2726-0.73445-4.5971-2.1562-6.9375a3.5004 3.5004 0 1 0 -5.9688 3.625c0.9291 1.5294 1.1323 2.6263 1.125 3.25-7e-3 0.62373-0.1586 0.87597-0.5 1.25-0.68281 0.74807-2.738 1.5568-4.875 1.375s-3.9195-1.1641-4.6562-2.4375-1.1259-3.4434 1.3438-7.7812c2.1365-3.7527 4.7346-5.5827 7.5625-6.375s6.0378-0.47741 9.125 0.75c4.3704 1.7376 8.1505 5.3206 10 9.25 0.46551-3.4715 0.54983-7.1504 0.3125-11.031-2.296-1.9861-4.9158-3.6044-7.7188-4.7188-2.6616-1.0582-5.5426-1.657-8.4375-1.6562z" color="#000000" fill="#f00" style="block-progression:tb;text-indent:0;text-transform:none"/>
   <path transform="translate(267.04 535.84)" d="m293.31 259.38c6.9622 11.658 9.706 19.746 17.219 24.625l0.28125-4.625 94.281 0.71875 0.75 10.812c9.9608-3.6696 19.905-9.607 25.688-14.375 4.1445-3.4173 3.5625-15.719 3.5625-15.719-48.202 21.434-116.46 9.5401-141.78-1.4375zm20 22.5-0.125 3.5938c4.1942 2.0312 9.7148 3.3174 17.625 3.9062l53.562 4.2812c5.2174 1.4248 12.021 0.37435 18.969-1.9062l-0.375-8.8125-89.656-1.0625z" fill="#f00"/>
   <path d="m618.57 710.22-25.714 76.429c-0.12129 5.9511 0.36843 13.404 5 17.143 2.6003 2.0991 7.0222-0.80247 10 0.71429 5.2699 2.6843 6.1047 10.996 11.429 13.571 7.0761 3.4234 16.56 4.268 23.571 0.71428 4.1236-2.09 4.48-8.2715 7.8572-11.429 5.4588-5.103 16.631-4.4435 19.286-11.429l-27.857-87.143c-5.0767-15.881-18.578-13.414-23.571 1.4286z" fill="#c5c2bd" stroke="#000" stroke-linecap="round" stroke-linejoin="round" stroke-width="1.9"/>
  </g>
 </g>
</svg>
